<svg width="25" height="25" viewBox="0 0 25 25" fill="none" xmlns="http://www.w3.org/2000/svg">
<circle cx="12.5" cy="12.5" r="11" fill="#FFC700" stroke="#F1BD05" stroke-width="3"/>
<path d="M15.6272 6.92869C16.5818 4.83998 15.1132 5.58594 14.6726 6.03353L14.0117 5.80974C15.8475 3.87019 19.0784 3.12422 16.4349 7.45087C15.1866 8.94279 15.26 9.98715 12.176 8.719C13.841 10.6 13.1016 11.5757 13.0571 11.8521C9.31218 17.6706 2.99719 21.4005 6.52185 14.7614L6.81559 15.3581C6.47292 16.129 6.21346 17.3723 7.91704 16.1787C3.87839 11.4791 8.94506 3.6464 15.6272 6.92869Z" fill="white"/>
<path d="M17.3077 10.8739C15.613 11.5982 15.6836 12.6123 15.613 14.2057C14.6244 12.395 13.9889 11.1637 12.0823 14.0609C10.8112 15.9923 13.0003 20.0726 16.9547 16.0889C18.7907 14.3506 19.285 10.8015 16.6016 7.9043C15.0198 10.28 16.1779 10.2945 17.3077 10.8739Z" fill="white"/>
<path d="M17.343 15.9459C17.2193 16.1027 17.0843 16.2503 16.9332 16.3955C16.5256 16.787 16.6142 17.4971 17.1461 17.6881L18.258 18.0872C18.5873 18.2054 18.927 18.0753 19.1375 17.7958C19.3277 17.5433 19.4105 17.191 19.2629 16.9114L18.7665 15.9709C18.4887 15.4444 17.7118 15.4786 17.343 15.9459Z" fill="white"/>
</svg>
